<?xml version="1.0" encoding="utf-8"?>
<!-- Generator: Adobe Illustrator 21.0.2, SVG Export Plug-In . SVG Version: 6.00 Build 0)  -->
<svg version="1.1" id="Layer_1" xmlns="http://www.w3.org/2000/svg" xmlns:xlink="http://www.w3.org/1999/xlink" x="0px" y="0px"
	 viewBox="0 0 1000 1000" style="enable-background:new 0 0 1000 1000;" xml:space="preserve">
<style type="text/css">
	.st0{fill:#FFFFFF;}
</style>
<g id="Page-1">
	<g id="site-logo-new" transform="translate(-1.000000, 0.000000)">
		<path id="Shape" class="st0" d="M996,361.5H889.5l-14.2,49.2c-3.1-35.7-28.9-56.5-71.9-56.5c-40.6,0-76.9,18.4-107,56
			c-26.4,32.6-39.4,72.6-39.4,119.3c0,16.1,2.1,30.8,5.8,43.7c-15.8,22.7-26.5,35-37.1,35c-7.4,0-13.5-6.1-13.5-11.7
			c0-9.8,3.1-20.3,6.8-31.3l28.9-86.1c8.6-25.2,14.2-46.7,14.2-65.8c0-36.3-22.2-59.1-58.4-59.1c-45.5,0-85.5,35-126.1,104.6
			c6.8-18.5,10.5-34.5,10.5-47.4c0-35-22.2-57.2-59.1-57.2c-46.7,0-88.5,35-130.3,104.6l32.6-103.4c-28.3,4.3-64,6.8-108.8,6.8
			c-10.5,0-21.5-0.6-33.2-0.6l-3.7,9.2h35.7l-58.3,196.3C144.7,592,129,610,119.2,610c-8.6,0-14.2-6.1-14.2-17.2
			c0-6.8,2.5-14.2,5.6-24.6L172,355.3c-28.3,4.3-64.6,6.8-109.5,6.8c-10.5,0-21.5-0.6-33.2-0.6l-3,9.2h35L15.8,532.6
			C10.9,550.4,6,565.8,6,580c0,38.1,22.2,59.7,64,59.7c33.9,0,59.7-15,85-46.3l-11.5,39h107.6l43-143.3c4.3-15.4,24-51.7,54.1-83.6
			c11.7-12.3,21.5-19.1,30.1-19.1c9.2,0,14.7,6.1,14.7,17.3c0,3.7-0.7,7.4-2.5,13.5l-65.2,215.3h105.8l41.2-143.3
			c4.3-15.4,23.4-51.1,52.9-83.6c11-12.3,21-19.1,29.5-19.1s14.2,6.1,14.2,15.4c0,4.9-0.6,9.8-2.5,15.4l-36.9,113.7
			c-6.1,18.5-10.5,34.5-10.5,49.8c0,34.5,24,58.4,59.1,58.4c32.7,0,61.8-18.6,88-55.6c14.1,35.9,43.7,56.2,84.2,56.2
			c37.6,0,63.3-16.6,81.2-51.1c4.3,33.2,26.4,51.1,65.2,51.1c33.3,0,65.1-20.4,92.3-53.1l-5.8-7.5c-15,18.3-29.2,31.1-36.7,31.1
			c-8,0-12.3-3.7-12.3-11.7c0-4.9,1.8-16,5.6-30.1L996,361.5z M866.8,419.9c0,24-5.6,49.2-13.5,77.5c-9.8,35.7-17.8,64.6-27.7,84.9
			c-12.9,27.1-31.3,39.9-51.1,39.9c-14.7,0-24-9.8-24-25.9c0-8.6,2.5-21,6.8-36.9l34.5-127.3c10.5-38.7,23.3-58.4,44.3-58.4
			C853.9,373.8,866.8,391,866.8,419.9 M189.3,281c0-28.9-22.1-51.1-51.1-51.1S86.6,252,86.6,281c0,28.9,22.7,51.6,51.6,51.6
			S189.3,309.8,189.3,281"/>
	</g>
</g>
</svg>
