<?xml version="1.0" encoding="utf-8"?>
<!-- Generator: Adobe Illustrator 21.0.2, SVG Export Plug-In . SVG Version: 6.00 Build 0)  -->
<svg version="1.1" id="Layer_1" xmlns="http://www.w3.org/2000/svg" xmlns:xlink="http://www.w3.org/1999/xlink" x="0px" y="0px"
	 viewBox="0 0 1000 1000" style="enable-background:new 0 0 1000 1000;" xml:space="preserve">
<style type="text/css">
	.st0{fill:#FFFFFF;}
</style>
<g id="Favicon_x2F_240">
	<g id="Logo">
		<g id="DAZN_x5F_Logo_x28_black_x29__x5F_2.0.WIP">
			<path id="Fill-1" class="st0" d="M730.5,551.4h-25.3c-6.5,0-10.9,1-13.1,2.8c-2.2,2-3.2,5.7-3.2,11.5V708l-74.6-142.8
				c-3-6.1-5.9-9.9-8.9-11.5s-7.9-2.4-15.2-2.4h-23.4c-6.5,0-10.9,1-13.1,2.8c-2.2,2-3.2,5.7-3.2,11.5v240.2c0,5.7,1,9.7,3,11.5
				s6.3,2.8,12.9,2.8h25.7c6.5,0,10.9-1,13.1-2.8c2.2-2,3.2-5.7,3.2-11.5V663.1l74.6,143.2c3,6.1,5.9,9.9,8.9,11.5
				c3,1.6,7.9,2.4,15.2,2.4h23.4c6.5,0,10.9-1,13.1-2.8c2.2-2,3.2-5.7,3.2-11.5V565.7c0-5.7-1-9.7-3.2-11.5
				C741.3,552.4,737,551.4,730.5,551.4z M391.3,346.3c0,10.3-0.6,19-2,25.9c-1.4,6.9-3.6,12.5-6.7,16.8s-7.3,7.3-12.5,9.1
				c-5.1,1.8-11.5,2.6-19,2.6h-30.9V237.6h30.9c14.3,0,24.5,4.2,30.9,12.7c6.3,8.5,9.5,22.4,9.5,41.8v54.3H391.3z M445.4,237.2
				c-8.9-17.8-20.8-31.1-36-39.6c-15.2-8.5-34.4-12.9-57.6-12.9h-77.4c-6.5,0-10.9,1-13.1,2.8c-2.2,2-3.2,5.7-3.2,11.5v240.2
				c0,5.7,1,9.7,3.2,11.5c2.2,1.8,6.5,2.8,13.1,2.8h86.7c41,0,69.1-17.4,84.1-52.5c3.6-8.1,5.9-16.2,7.3-24.4c1.4-8.1,2-18.6,2-31.1
				v-50.9c0-14.3-0.6-25.7-2-34.1C451.3,252.4,449,244.5,445.4,237.2z M873.4,524.1l62.6,63v349.1H69.1l0.4-350.1l62.2-62.2
				c5.7-5.7,8.9-13.5,8.9-21.6s-3.2-15.8-8.9-21.6l-62.6-63V68.7h866.9l-0.4,350.1l-62.2,62.2c-5.7,5.7-8.9,13.5-8.9,21.6
				S867.6,518.3,873.4,524.1z M938.1,502.5l58.8-58.4V7.5H7.9L7.5,443.3l59.2,59.2L7.9,560.9v436.6h989.2l0.4-435.8L938.1,502.5z
				 M618.8,348.7l30.1-101.6l30.9,101.6H618.8z M769.3,437.4l-79.2-239.8c-1.8-5.3-3.8-8.7-5.9-10.3c-2.2-1.6-5.9-2.4-10.9-2.4
				h-43.7c-4.9,0-8.7,0.8-11.1,2.6c-2.4,1.8-4.4,5.1-5.9,10.3l-80,239.8c-1,1.2-1.6,3.8-1.6,7.5c0,5.7,3.6,8.7,10.5,8.7h32.9
				c3,0,5.5-0.2,7.3-0.4c2-0.2,3.4-0.8,4.6-2c1.2-1,2.2-2.6,3-4.6c0.8-2,1.8-4.8,2.8-7.9l12.5-42h90.3l12.9,41.2c1,3.6,2,6.3,3,8.3
				c1,2,2.2,3.6,3.4,4.8c1.2,1.2,2.8,1.8,4.6,2.2c1.8,0.2,4,0.4,6.7,0.4h35c7.1,0,10.5-3,10.5-8.7c0-1.8,0-3-0.2-3.6
				C770.4,440.7,770,439.3,769.3,437.4z M439.6,764.3H335.1l111.3-157c1.8-2.6,3-4.6,3.4-6.1c0.6-1.6,0.8-3.2,0.8-5.3v-30.3
				c0-5.7-1-9.7-3.2-11.5s-6.5-2.8-13.1-2.8H273.6c-5.7,0-9.5,1-11.3,3.2c-1.8,2.2-2.6,6.5-2.6,13.5v22.6c0,6.7,0.8,11.3,2.6,13.5
				c1.8,2.2,5.5,3.2,11.3,3.2h99.2l-109.9,157c-2.8,3.6-4.2,7.1-4.2,10.5v30.9c0,5.7,1,9.7,3.2,11.5c2.2,1.8,6.5,2.8,13.1,2.8h164.5
				c5.7,0,9.5-1,11.3-3.2c1.8-2.2,2.6-6.5,2.6-13.5v-22.6c0-6.7-1-11.3-2.6-13.5C449.1,765.4,445.4,764.3,439.6,764.3z"/>
		</g>
	</g>
</g>
</svg>
