<?xml version="1.0" encoding="utf-8"?>
<!-- Generator: Adobe Illustrator 25.1.0, SVG Export Plug-In . SVG Version: 6.00 Build 0)  -->
<svg version="1.1" id="Logo" xmlns="http://www.w3.org/2000/svg" xmlns:xlink="http://www.w3.org/1999/xlink" x="0px" y="0px"
	 viewBox="0 0 150 130" style="enable-background:new 0 0 150 130;" xml:space="preserve">
<style type="text/css">
	.st0{fill:#ffffff;}
</style>
<path id="e" class="st0" d="M136.34,76.45c0.48,0.02,0.97,0.01,1.45-0.02c3.53-0.22,6.53-1.46,8.94-3.69
	c1.59-1.47,2.25-2.97,2.24-3.41c-0.01-0.36-1.4-1.54-1.97-1.56c-0.33,0-0.57,0.27-0.86,0.59c-0.11,0.13-0.23,0.26-0.36,0.38
	c-2.22,2.1-4.83,3.3-7.55,3.47c-0.23,0.01-0.46,0.02-0.68,0.01c-2.79-0.09-4.91-1.85-5.83-4.84l-0.06-0.2l0.21-0.02
	c10.43-0.8,13.94-7.2,13.7-11.05c-0.31-4.94-4.49-6.83-7.98-6.95c-0.42-0.01-0.86-0.01-1.31,0.02c-3.58,0.22-6.78,1.96-9.01,4.9
	c-2.23,2.94-3.32,6.86-3.06,11.03C124.54,70.18,127.9,76.17,136.34,76.45z M131.21,63.22c0.23-4.11,1.41-6.51,2.36-7.8
	c1.07-1.46,2.47-2.33,3.72-2.33c0.93,0,1.59,0.33,1.99,0.96c0.68,1.06,0.48,2.84-0.07,4.04c-1.86,4.06-5.7,5.06-7.82,5.3l-0.2,0.02
	L131.21,63.22z"/>
<path id="g_1_" class="st0" d="M61.7,90.01c4.21,0,7.8-0.87,10.38-2.53c2.56-1.64,3.91-3.93,3.91-6.6c0-4.83-4.85-6.14-9.08-6.74
	l-3.45-0.34c-4.05-0.6-4.99-0.82-4.99-1.67c0-0.35,0.31-0.78,0.93-1.27l0.06-0.05l0.08,0.02c0.92,0.23,1.88,0.35,2.84,0.35
	c3.02,0,5.87-1.14,8.01-3.22c2.14-2.08,3.32-4.83,3.32-7.76c0-2.85-1.11-5.55-3.14-7.6l-0.16-0.16l0.21-0.1
	c0.93-0.46,1.97-0.71,2.94-0.7c0.46,0,0.9,0.06,1.24,0.17c0.13,0.04,0.25,0.06,0.38,0.07l0.04,0c0.42,0,0.79-0.2,1.05-0.57
	c0.45-0.64,0.48-1.66,0.09-2.73c-0.34-0.94-1.33-1.48-2.69-1.48c-0.78,0-1.63,0.18-2.37,0.5c-1.42,0.61-2.7,1.51-3.8,2.68
	l-0.08,0.09l-0.11-0.05c-1.42-0.67-2.95-1.03-4.53-1.09c-0.13,0-0.26-0.01-0.39-0.01c-6.24,0-11.33,4.92-11.33,10.98
	c0,3.59,1.81,6.97,4.85,9.02l0.22,0.15l-0.24,0.13c-2.29,1.27-3.61,2.89-3.61,4.43c0,1.02,0.46,1.97,1.34,2.75l0.17,0.15l-0.2,0.12
	c-3.35,1.95-4.84,3.89-4.84,6.27C48.75,87.36,53.74,90.01,61.7,90.01z M62.42,53.1l0.08,0c2.24,0.07,3.99,3.19,3.99,7.09
	c0,3.91-1.83,7.09-4.07,7.08l-0.08,0c-2.24-0.07-3.99-3.19-3.98-7.09C58.35,56.28,60.18,53.1,62.42,53.1z M57.82,78.53l0.06-0.04
	l0.07,0.02c1.25,0.26,2.12,0.43,3.94,0.65l3.63,0.45C69.46,80.2,70,81.28,70,82.35c0,2.1-3.08,3.57-7.49,3.57
	c-0.27,0-0.53,0-0.78-0.01c-4.23-0.14-6.66-1.38-6.65-3.4C55.08,81.15,55.95,79.89,57.82,78.53z"/>
<path id="a" class="st0" d="M97.29,76.35l0.04,0c0.03,0,0.12-0.02,0.27-0.21c0.73-0.94,1.42-4.05,1.35-4.35
	c-0.02-0.07-0.2-0.19-0.36-0.3c-0.46-0.31-1.16-0.79-1.27-1.79c-0.15-1.37-0.35-10.39-0.36-10.77c-0.05-4.46-1.45-7.27-4.27-8.58
	c-1.48-0.69-3.73-1.1-6.01-1.07c-8.77,0.1-9.68,3.97-9.67,5.63c-0.01,0.41,0.04,0.82,0.16,1.22c0.49,1.62,1.99,2.72,3.69,2.71
	c0.36,0,0.71-0.06,1.07-0.17c0.6-0.18,1.02-0.76,1.02-1.39c-0.02-1.49,0.29-2.63,0.91-3.39c0.63-0.78,1.57-1.18,2.82-1.19
	c0.1,0,0.21,0,0.3,0c2.4,0.08,3.49,1.47,3.52,4.5l0.02,1.95l-0.15,0.01c-10.55,0.97-15.65,4.32-15.58,10.25
	c0.05,4.44,2.96,7.23,7.51,7.19c3.14-0.03,6.13-1.57,8.42-4.32l0.21-0.25l0.08,0.31C91.68,74.79,95.18,76.37,97.29,76.35z
	 M90.57,68.12c-1.67,1.69-4.22,3.4-6.12,3.42c-0.08,0-0.15,0-0.22,0c-1.83-0.06-2.89-1.12-2.91-2.91c-0.02-1.83,1.13-5.06,9.06-6.15
	l0.19-0.03l0.06,5.61L90.57,68.12z"/>
<path id="g" class="st0" d="M109.79,90.02c8.55,0.01,14.29-3.66,14.3-9.13c0-4.83-4.85-6.14-9.08-6.74l-3.45-0.34
	c-4.05-0.6-4.99-0.82-4.99-1.67c0-0.36,0.31-0.78,0.93-1.27l0.06-0.05l0.08,0.02c0.92,0.23,1.88,0.35,2.84,0.35
	c3.02,0,5.87-1.14,8.01-3.22c2.14-2.08,3.32-4.83,3.32-7.76c0-2.85-1.11-5.55-3.13-7.6l-0.16-0.16l0.21-0.1
	c0.93-0.46,1.97-0.71,2.94-0.7c0.46,0,0.89,0.06,1.24,0.17c0.13,0.04,0.26,0.06,0.38,0.07l0.04,0c0.42,0,0.79-0.2,1.05-0.57
	c0.45-0.64,0.48-1.66,0.09-2.73c-0.34-0.94-1.32-1.48-2.69-1.49c-0.78,0-1.63,0.18-2.37,0.5c-1.42,0.61-2.7,1.51-3.8,2.68
	l-0.08,0.09l-0.11-0.05c-1.42-0.67-2.95-1.03-4.53-1.09c-0.13,0-0.26-0.01-0.39-0.01c-6.24,0-11.33,4.92-11.33,10.98
	c0,3.59,1.81,6.97,4.85,9.03l0.22,0.15l-0.24,0.13c-2.29,1.27-3.61,2.89-3.61,4.43c0,1.02,0.46,1.97,1.34,2.75l0.17,0.15l-0.2,0.12
	c-3.35,1.95-4.84,3.89-4.84,6.27C96.84,87.37,101.83,90.02,109.79,90.02z M110.51,53.11l0.08,0c2.24,0.07,3.99,3.19,3.98,7.09
	c0,3.91-1.83,7.09-4.07,7.08l-0.08,0c-2.24-0.07-3.99-3.19-3.98-7.09C106.44,56.29,108.27,53.11,110.51,53.11z M105.91,78.54
	l0.06-0.04l0.07,0.02c1.25,0.26,2.11,0.43,3.94,0.65l3.63,0.45c3.94,0.59,4.48,1.67,4.48,2.74c0,2.1-3.08,3.57-7.5,3.57
	c-0.27,0-0.52,0-0.78-0.01h0c-4.23-0.14-6.66-1.38-6.65-3.4C103.17,81.16,104.04,79.9,105.91,78.54z"/>
<path id="en" class="st0" d="M41.81,59.6L41.8,74.29c0,0.78,0.61,1.4,1.38,1.43l0.05,0l3.89,0c0.79,0,1.43-0.64,1.43-1.43
	l0.01-17.09c0-3.56-1.02-7.85-5.92-8.01c-0.09,0-0.18,0-0.28,0c-4.2,0-7.13,2.66-8.96,4.67l-0.23,0.26l-0.05-0.34
	c-0.2-1.26-0.73-3.34-1.24-3.79c-0.01,0-0.06-0.05-0.29-0.06c-1.53-0.05-5.48,1.38-5.58,1.88c-0.04,0.2-0.01,0.29,0.08,0.53
	c0.1,0.29,0.26,0.74,0.39,1.71c0.2,1.44,0.03,9.77,0.03,10.12l0,0.04l-0.02,0.04c-2.97,5.1-7.31,8.02-11.91,8.02
	c-3.09-0.01-5.41-1.97-6.19-5.23l-0.05-0.2l0.21,0c10.46-0.14,14.36-6.3,14.37-10.16c0-4.99-4.2-7.35-8.36-7.49
	c-0.15-0.01-0.31-0.01-0.46-0.01C6.63,49.16,1.02,55.67,1.01,64.3c-0.01,8.32,6.54,12.14,12.82,12.14c5,0,9.03-2.1,12.34-6.44
	l0.3-0.39l0,4.67c0,0.78,0.61,1.4,1.38,1.43l0.05,0l3.88,0c0.79,0,1.43-0.64,1.43-1.43l0.01-15.08l0.03-0.04
	c1.25-1.73,3.66-4.64,5.83-4.64C41,54.54,41.81,56.04,41.81,59.6z M8.11,63.36l0.01-0.2c0.23-4.11,1.41-6.51,2.36-7.8
	c1.07-1.46,2.47-2.33,3.72-2.33c0.92,0,1.59,0.33,2,0.96c0.68,1.06,0.48,2.84-0.07,4.04c-1.86,4.06-5.7,5.06-7.82,5.3L8.11,63.36z"
	/>
</svg>
