<?xml version="1.0" encoding="utf-8"?>
<!-- Generator: Adobe Illustrator 21.0.2, SVG Export Plug-In . SVG Version: 6.00 Build 0)  -->
<svg version="1.1" id="Layer_1" xmlns="http://www.w3.org/2000/svg" xmlns:xlink="http://www.w3.org/1999/xlink" x="0px" y="0px"
	 viewBox="0 0 1000 1000" style="enable-background:new 0 0 1000 1000;" xml:space="preserve">
<style type="text/css">
	.st0{fill:#FFFFFF;}
</style>
<path class="st0" d="M5,375.7v247.5h195v-53.6H72.3V375.7H5z M332.3,368.8C251.4,368.8,200,419,200,500s51.3,131.2,132.3,131.2
	S464.6,581,464.6,500S413.3,368.8,332.3,368.8 M332.3,577.6c-39.9,0-63.9-27.4-63.9-78.7s22.8-78.7,63.9-78.7
	c39.9,0,63.9,27.4,63.9,78.7S373.4,577.6,332.3,577.6 M586.7,506.8c-5.7,18.2-10.3,33.1-12.5,44.5c-4.6-21.7-10.3-37.6-13.7-49
	L524,375.7h-71.9l90.1,247.5h62.7l91.2-247.5h-70.7L586.7,506.8z M715.6,375.7v247.5h204.2V573H782.9v-53.6h120.9v-49H782.9v-44.5
	h132.3v-50.2H715.6z M939.1,573H995v50.2h-55.9V573z"/>
</svg>
